<svg width="110" height="110" viewBox="0 0 110 110" fill="none" xmlns="http://www.w3.org/2000/svg">
<rect width="110" height="110" fill="black"/>
<path fill-rule="evenodd" clip-rule="evenodd" d="M87.3752 52.5434C88.9744 54.2245 88.9744 56.7755 87.3752 58.4566C82.1875 63.9099 69.8709 75 55.5 75C41.1291 75 28.8125 63.9099 23.6248 58.4566C22.0256 56.7755 22.0256 54.2245 23.6248 52.5434C28.8125 47.0901 41.1291 36 55.5 36C69.8709 36 82.1875 47.0901 87.3752 52.5434Z" stroke="white" stroke-width="4" stroke-linecap="round" stroke-linejoin="round"/>
<path fill-rule="evenodd" clip-rule="evenodd" d="M67 56C67 62.0748 62.0748 67 56 67C49.9252 67 45 62.0748 45 56C45 49.9252 49.9252 45 56 45C62.0748 45 67 49.9252 67 56Z" fill="white"/>
</svg>
