<svg width="100" height="100" viewBox="0 0 100 100" fill="none" xmlns="http://www.w3.org/2000/svg">
<path d="M62.2686 79.5526H68.2932L65.2909 70.0853L62.2686 79.5526Z" fill="#D22239"/>
<path d="M84.0431 76.1678C81.8208 76.1678 80.3394 78.0196 80.3394 80.9826C80.3394 83.9456 81.8208 85.7974 83.6727 85.7974C85.8949 85.7974 87.3764 83.9456 87.3764 80.9826C87.3764 78.0196 85.8949 76.1678 84.0431 76.1678Z" fill="#D22239"/>
<path d="M91.8518 89.2593H87.4074V87.037C86.2963 88.5185 84.8148 89.6296 82.5926 89.6296C78.5185 89.6296 75.9259 85.9259 75.9259 81.1111C75.9259 75.9259 78.5185 72.5926 82.5926 72.5926C84.8148 72.5926 86.2963 73.3333 87.4074 75.1852V67.037H91.8518V89.2593ZM71.4815 89.2593L69.6296 83.7037H61.1111L59.2593 89.2593H54.4444L55.1852 87.7778L62.5926 66.6667H68.8889L76.2963 89.2593H71.4815ZM40 90C34.4444 90 30.7407 86.6667 30.7407 81.8519H35.5556C35.5556 84.8148 37.037 86.2963 40 86.2963C42.2222 86.2963 44.0741 85.1852 44.0741 83.3333C44.0741 81.8519 43.3333 81.1111 40.3704 80L36.6667 78.8889C33.3333 77.7778 31.4815 75.5556 31.4815 72.5926C31.4815 68.5185 34.8148 65.9259 40.3704 65.9259C45.1852 65.9259 48.5185 68.8889 48.8889 73.7037H44.0741V73.3333C44.0741 71.1111 42.5926 69.6296 40 69.6296C38.1481 69.6296 36.6667 70.7407 36.6667 72.2222C36.6667 73.7037 37.4074 74.0741 40.3704 75.1852L43.7037 76.2963C47.7778 77.4074 49.6296 79.6296 49.6296 82.5926C48.8889 87.037 45.1852 90 40 90ZM28.1481 89.2593H23.3333V79.2593H14.0741V89.2593H9.25926V66.6667H14.0741V75.5556H23.7037V66.6667H28.5185L28.1481 89.2593ZM0 100H100V0H0V100Z" fill="#D22239"/>
</svg>
