<svg width="664" height="192" viewBox="0 0 664 192" fill="none" xmlns="http://www.w3.org/2000/svg">
<path d="M590.776 190.543C607.674 190.543 621.514 183.141 629.078 170.105V187.647H664V4.50653H627.469V71.454C618.778 57.7748 606.869 51.8204 589.167 51.8204C557.946 51.8204 536.221 79.9834 536.221 120.538C536.06 162.058 558.268 190.543 590.776 190.543ZM601.076 82.2365C617.652 82.2365 627.79 97.364 627.79 121.021C627.79 145.161 616.847 160.61 599.467 160.61C583.695 160.61 572.591 144.034 572.591 120.699C572.591 97.364 583.856 82.2365 601.076 82.2365Z" fill="white"/>
<path d="M246.549 160.931C224.662 160.931 211.305 147.574 211.305 125.205H171.716C171.716 166.081 200.683 191.991 245.905 191.991C289.839 191.991 317.842 169.139 317.842 132.929C317.842 107.663 302.553 91.0873 270.367 81.7532L244.135 74.3504C220.8 67.4303 214.523 62.7633 214.523 51.1762C214.523 38.9455 225.467 30.577 241.238 30.577C260.711 30.577 273.103 41.6813 273.103 59.0619V61.3149H312.37C311.404 23.8179 285.333 0 245.261 0C202.936 0 175.095 21.7258 175.095 54.2339C175.095 78.5346 189.901 96.398 216.455 104.445L246.871 113.135C270.689 120.216 277.93 126.331 277.93 138.723C277.93 152.402 265.7 160.931 246.549 160.931Z" fill="white"/>
<path d="M401.681 187.485L416.326 142.264H485.205L500.01 187.485H540.243L476.514 4.50653H426.143L366.92 175.094L362.253 187.485H362.575H401.681ZM450.604 33.4742L474.744 109.595H426.304L450.604 33.4742Z" fill="white"/>
<path d="M38.4627 108.468H114.583V187.485H153.046V4.50653H114.583V76.2819H38.4627V4.50653H0V187.485H38.4627V108.468Z" fill="white"/>
</svg>
