<svg width="140" height="140" viewBox="0 0 140 140" fill="none" xmlns="http://www.w3.org/2000/svg">
<path d="M20 118.652H121" stroke="white" stroke-width="2" stroke-linecap="round" stroke-linejoin="round"/>
<path fill-rule="evenodd" clip-rule="evenodd" d="M24.3906 118.652H37.5645V96.6958H24.3906V118.652Z" stroke="white" stroke-width="2" stroke-linecap="round" stroke-linejoin="round"/>
<path fill-rule="evenodd" clip-rule="evenodd" d="M50.7402 118.652H63.9141V74.7391H50.7402V118.652Z" stroke="white" stroke-width="2" stroke-linecap="round" stroke-linejoin="round"/>
<path fill-rule="evenodd" clip-rule="evenodd" d="M77.0859 118.652H90.2598V83.5217H77.0859V118.652Z" stroke="white" stroke-width="2" stroke-linecap="round" stroke-linejoin="round"/>
<path fill-rule="evenodd" clip-rule="evenodd" d="M103.436 118.652H116.609V52.7827H103.436V118.652Z" stroke="white" stroke-width="2" stroke-linecap="round" stroke-linejoin="round"/>
<path fill-rule="evenodd" clip-rule="evenodd" d="M35.3705 65.9566C35.3705 68.3806 33.4076 70.3479 30.9792 70.3479C28.5552 70.3479 26.5879 68.3806 26.5879 65.9566C26.5879 63.5326 28.5552 61.5653 30.9792 61.5653C33.4076 61.5653 35.3705 63.5326 35.3705 65.9566Z" stroke="white" stroke-width="2" stroke-linecap="round" stroke-linejoin="round"/>
<path fill-rule="evenodd" clip-rule="evenodd" d="M61.7162 43.9999C61.7162 46.4239 59.7533 48.3913 57.3249 48.3913C54.9009 48.3913 52.9336 46.4239 52.9336 43.9999C52.9336 41.5759 54.9009 39.6086 57.3249 39.6086C59.7533 39.6086 61.7162 41.5759 61.7162 43.9999Z" stroke="white" stroke-width="2" stroke-linecap="round" stroke-linejoin="round"/>
<path fill-rule="evenodd" clip-rule="evenodd" d="M88.0658 52.7828C88.0658 55.2068 86.1029 57.1741 83.6745 57.1741C81.2505 57.1741 79.2832 55.2068 79.2832 52.7828C79.2832 50.3588 81.2505 48.3915 83.6745 48.3915C86.1029 48.3915 88.0658 50.3588 88.0658 52.7828Z" stroke="white" stroke-width="2" stroke-linecap="round" stroke-linejoin="round"/>
<path fill-rule="evenodd" clip-rule="evenodd" d="M114.413 22.0435C114.413 24.4675 112.451 26.4348 110.022 26.4348C107.598 26.4348 105.631 24.4675 105.631 22.0435C105.631 19.6195 107.598 17.6522 110.022 17.6522C112.451 17.6522 114.413 19.6195 114.413 22.0435Z" stroke="white" stroke-width="2" stroke-linecap="round" stroke-linejoin="round"/>
<path d="M34.3525 63.1457L53.9553 46.8101" stroke="white" stroke-width="2" stroke-linecap="round" stroke-linejoin="round"/>
<path d="M61.4775 45.3851L79.6356 51.432" stroke="white" stroke-width="2" stroke-linecap="round" stroke-linejoin="round"/>
<path d="M107.165 25.3756L86.5303 49.4487" stroke="white" stroke-width="2" stroke-linecap="round" stroke-linejoin="round"/>
</svg>
