<svg width="140" height="140" viewBox="0 0 140 140" fill="none" xmlns="http://www.w3.org/2000/svg">
<path fill-rule="evenodd" clip-rule="evenodd" d="M63.9167 52.7333C63.9167 49.1545 66.8845 46.1866 70.4633 46.1866C74.0814 46.1866 77.01 49.1195 77.01 52.7333V78.9199L96.6499 85.4665C100.966 86.8544 102.031 91.9565 101.014 96.3776L96.6499 120.382H61.7344L44.2767 94.1954C42.2953 91.1665 42.0945 85.4665 46.4589 85.4665C50.8234 85.4665 55.1878 87.2952 63.9167 100.742V52.7333Z" stroke="white" stroke-width="2"/>
<path d="M48.6399 72.3732H42.0933C34.8614 72.3732 29 66.5118 29 59.2799V33.0933C29 25.8614 34.8614 20 42.0933 20H98.8309C106.063 20 111.924 25.8614 111.924 33.0933V59.2799C111.924 66.5118 106.063 72.3732 98.8309 72.3732H92.2843" stroke="white" stroke-width="2"/>
</svg>
