<svg width="140" height="140" viewBox="0 0 140 140" fill="none" xmlns="http://www.w3.org/2000/svg">
<path fill-rule="evenodd" clip-rule="evenodd" d="M81.0414 23.5011H36.6424C26.8347 23.5011 18.8828 31.453 18.8828 41.2607V59.0203C18.8828 68.828 26.8347 76.7799 36.6424 76.7799H43.3022V94.5395L61.0618 76.7799H81.0414C90.8491 76.7799 98.801 68.828 98.801 59.0203V41.2607C98.801 31.453 90.8491 23.5011 81.0414 23.5011Z" stroke="white" stroke-width="2" stroke-linecap="round" stroke-linejoin="round"/>
<path d="M67.7217 92.3194C67.7217 98.4509 72.6899 103.419 78.8214 103.419H89.9212L103.241 116.739V103.419H109.901C116.032 103.419 121 98.4509 121 92.3194V83.4396C121 77.3081 116.032 72.3398 109.901 72.3398" stroke="white" stroke-width="2" stroke-linecap="round" stroke-linejoin="round"/>
</svg>
