<svg width="706" height="204" viewBox="0 0 706 204" fill="none" xmlns="http://www.w3.org/2000/svg">
<path d="M627.728 202.461C645.683 202.461 660.389 194.596 668.426 180.745V199.384H705.532V4.78839H666.716V75.9233C657.482 61.3885 644.828 55.0617 626.018 55.0617C592.845 55.0617 569.76 84.9862 569.76 128.078C569.589 172.195 593.187 202.461 627.728 202.461ZM638.672 87.3802C656.285 87.3802 667.058 103.454 667.058 128.591C667.058 154.24 655.43 170.656 636.962 170.656C620.204 170.656 608.406 153.043 608.406 128.249C608.406 103.454 620.375 87.3802 638.672 87.3802Z" fill="#161616"/>
<path d="M261.97 170.997C238.714 170.997 224.521 156.805 224.521 133.036H182.456C182.456 176.469 213.236 204 261.286 204C307.968 204 337.722 179.718 337.722 141.244C337.722 114.397 321.477 96.7846 287.278 86.8667L259.405 79.0008C234.61 71.648 227.941 66.689 227.941 54.3772C227.941 41.3814 239.569 32.4895 256.327 32.4895C277.018 32.4895 290.185 44.2884 290.185 62.7561V65.15H331.908C330.882 25.3076 303.18 0 260.602 0C215.63 0 186.047 23.0847 186.047 57.6262C186.047 83.4468 201.779 102.427 229.993 110.977L262.312 120.211C287.62 127.735 295.314 134.233 295.314 147.4C295.314 161.935 282.319 170.997 261.97 170.997Z" fill="#161616"/>
<path d="M426.806 199.212L442.366 151.162H515.553L531.285 199.212H574.034L506.319 4.78839H452.797L389.87 186.045L384.911 199.212H385.253H426.806ZM478.789 35.5679L504.438 116.45H452.968L478.789 35.5679Z" fill="#161616"/>
<path d="M40.8684 115.253H121.75V199.212H162.619V4.78839H121.75V81.0531H40.8684V4.78839H0V199.212H40.8684V115.253Z" fill="#161616"/>
</svg>
