<svg width="278" height="280" viewBox="0 0 278 280" fill="none" xmlns="http://www.w3.org/2000/svg">
<path d="M139 0L153.344 21.8676L172.504 4.06815L181.198 28.7331L204.061 16.0362L206.6 42.0649L231.837 35.2085L228.073 61.0884L254.218 60.4709L244.369 84.6979L269.902 90.3553L254.542 111.521L277.979 123.125L258 140L277.979 156.875L254.542 168.479L269.902 189.645L244.369 195.302L254.218 219.529L228.073 218.912L231.837 244.792L206.6 237.935L204.061 263.964L181.198 251.267L172.504 275.932L153.344 258.132L139 280L124.656 258.132L105.496 275.932L96.802 251.267L73.9388 263.964L71.4003 237.935L46.1628 244.792L49.9272 218.912L23.7823 219.529L33.6307 195.302L8.09773 189.645L23.4579 168.479L0.020752 156.875L20 140L0.020752 123.125L23.4579 111.521L8.09773 90.3553L33.6307 84.6979L23.7823 60.4709L49.9272 61.0884L46.1628 35.2085L71.4003 42.0649L73.9388 16.0362L96.802 28.7331L105.496 4.06815L124.656 21.8676L139 0Z" fill="#D22239"/>
</svg>
